<svg width="570" height="184" viewBox="0 0 570 184" fill="none" xmlns="http://www.w3.org/2000/svg">
<path d="M0 50C0 22.3858 22.3858 0 50 0H520C547.614 0 570 22.3858 570 50V184H0V50Z" fill="white"/>
<path d="M110.2 129.4C107.467 129.4 105 128.4 102.8 126.4C100.667 124.4 99.6 121 99.6 116.2C99.6 112.667 100.267 109.1 101.6 105.5C103 101.9 104.833 98.5 107.1 95.3C109.433 92.0333 112.033 89.1667 114.9 86.7C117.767 84.1667 120.7 82.1667 123.7 80.7C126.767 79.2333 129.667 78.5 132.4 78.5C133.733 78.5 134.967 78.7667 136.1 79.3C137.3 79.8333 138.4 80.5333 139.4 81.4L146.9 78.1L148 78.8L139.5 116.1C138.967 118.233 138.7 119.8 138.7 120.8C138.7 122.2 139.367 122.9 140.7 122.9C141.633 122.9 142.667 122.533 143.8 121.8C144.933 121 146.2 119.933 147.6 118.6L148.8 119.8C147.8 121.333 146.567 122.833 145.1 124.3C143.633 125.767 141.967 127 140.1 128C138.3 128.933 136.4 129.4 134.4 129.4C132.333 129.4 130.6 128.767 129.2 127.5C127.8 126.167 127.1 124.133 127.1 121.4C127.1 120.467 127.167 119.467 127.3 118.4C124.567 121.467 121.7 124.067 118.7 126.2C115.7 128.333 112.867 129.4 110.2 129.4ZM111.2 111.6C111.2 115 111.733 117.467 112.8 119C113.933 120.467 115.433 121.2 117.3 121.2C118.9 121.2 120.533 120.7 122.2 119.7C123.867 118.633 125.733 117.067 127.8 115C127.867 114.6 127.967 114.067 128.1 113.4L134.3 85.2C133.433 84.3333 132.433 83.7333 131.3 83.4C130.167 83 129.1 82.8 128.1 82.8C125.367 82.8 122.367 84.5 119.1 87.9C116.767 90.4333 114.867 93.9 113.4 98.3C111.933 102.633 111.2 107.067 111.2 111.6Z" fill="#FF0000"/>
<path d="M185.505 80.21V118.28H197.655V128H157.74V118.28H171.285V89.93H158.19V80.21H185.505ZM176.91 55.19C179.37 55.19 181.38 55.955 182.94 57.485C184.5 59.015 185.28 60.92 185.28 63.2C185.28 65.48 184.5 67.4 182.94 68.96C181.38 70.49 179.37 71.255 176.91 71.255C174.42 71.255 172.38 70.49 170.79 68.96C169.23 67.4 168.45 65.48 168.45 63.2C168.45 60.92 169.23 59.015 170.79 57.485C172.38 55.955 174.42 55.19 176.91 55.19ZM230.965 78.635C235.885 78.635 240.07 79.685 243.52 81.785C246.97 83.885 249.61 86.84 251.44 90.65C253.27 94.43 254.185 98.87 254.185 103.97C254.185 109.28 253.255 113.855 251.395 117.695C249.565 121.505 246.925 124.43 243.475 126.47C240.025 128.51 235.855 129.53 230.965 129.53C226.105 129.53 221.935 128.525 218.455 126.515C215.005 124.505 212.35 121.595 210.49 117.785C208.66 113.975 207.745 109.4 207.745 104.06C207.745 98.99 208.66 94.55 210.49 90.74C212.35 86.93 215.005 83.96 218.455 81.83C221.935 79.7 226.105 78.635 230.965 78.635ZM230.965 89.12C228.055 89.12 225.895 90.32 224.485 92.72C223.105 95.09 222.415 98.87 222.415 104.06C222.415 109.34 223.105 113.165 224.485 115.535C225.895 117.905 228.055 119.09 230.965 119.09C233.875 119.09 236.02 117.905 237.4 115.535C238.81 113.165 239.515 109.31 239.515 103.97C239.515 98.81 238.81 95.045 237.4 92.675C236.02 90.305 233.875 89.12 230.965 89.12Z" fill="black"/>
<path d="M363.924 127.914H337.9V54.1971H364.221C371.609 54.1971 378.007 55.6979 383.417 58.6993C388.826 61.7008 392.998 65.9556 395.934 71.4637C398.869 76.9719 400.337 83.486 400.337 91.0062C400.337 98.5593 398.869 105.106 395.934 110.648C392.998 116.156 388.809 120.41 383.367 123.412C377.958 126.413 371.477 127.914 363.924 127.914ZM353.138 115.1H363.132C370.586 115.1 376.094 113.022 379.657 108.866C383.219 104.711 385 98.7572 385 91.0062C385 83.2552 383.202 77.3182 379.607 73.1953C376.045 69.0725 370.603 67.011 363.281 67.011H353.138V115.1Z" fill="black"/>
<path d="M409.292 127.914L408.945 54.1971H438.036C443.545 54.1971 448.311 55.1866 452.335 57.1656C456.391 59.1116 459.508 61.8987 461.685 65.5268C463.895 69.1549 465 73.4427 465 78.3902C465 83.3376 463.879 87.6254 461.636 91.2535C459.426 94.8487 456.293 97.6357 452.236 99.6147C448.179 101.594 443.38 102.583 437.839 102.583H424.184V127.914H434.346L416.738 146.912L398.882 127.914H409.292ZM424.184 89.8188H437.047C441.071 89.8188 444.254 88.7963 446.596 86.7514C448.937 84.6734 450.108 81.8864 450.108 78.3902C450.108 74.861 448.937 72.0739 446.596 70.029C444.254 67.984 441.071 66.9616 437.047 66.9616H424.184V89.8188Z" fill="black"/>
<path d="M280.708 125.737C285.259 127.98 290.602 129.101 296.737 129.101C302.872 129.101 308.215 127.98 312.767 125.737C317.319 123.461 320.848 120.311 323.355 116.288C325.861 112.231 327.115 107.547 327.115 102.237V54.1971H312.223V101C312.223 105.354 310.821 108.932 308.017 111.736C305.214 114.539 301.454 115.941 296.737 115.941C292.054 115.941 288.31 114.539 285.507 111.736C282.703 108.899 281.301 105.321 281.301 101V60.7871H291.463L273.855 43.0554L256 60.7871H266.409V102.237C266.409 107.547 267.646 112.231 270.12 116.288C272.627 120.311 276.156 123.461 280.708 125.737Z" fill="black"/>
</svg>
