<svg width="370" height="123" viewBox="0 0 370 123" fill="none" xmlns="http://www.w3.org/2000/svg">
<path d="M15.2 105.4C12.4667 105.4 10 104.4 7.8 102.4C5.66667 100.4 4.6 97 4.6 92.2C4.6 88.6667 5.26667 85.1 6.6 81.5C8 77.9 9.83333 74.5 12.1 71.3C14.4333 68.0333 17.0333 65.1667 19.9 62.7C22.7667 60.1667 25.7 58.1667 28.7 56.7C31.7667 55.2333 34.6667 54.5 37.4 54.5C38.7333 54.5 39.9667 54.7667 41.1 55.3C42.3 55.8333 43.4 56.5333 44.4 57.4L51.9 54.1L53 54.8L44.5 92.1C43.9667 94.2333 43.7 95.8 43.7 96.8C43.7 98.2 44.3667 98.9 45.7 98.9C46.6333 98.9 47.6667 98.5333 48.8 97.8C49.9333 97 51.2 95.9333 52.6 94.6L53.8 95.8C52.8 97.3333 51.5667 98.8333 50.1 100.3C48.6333 101.767 46.9667 103 45.1 104C43.3 104.933 41.4 105.4 39.4 105.4C37.3333 105.4 35.6 104.767 34.2 103.5C32.8 102.167 32.1 100.133 32.1 97.4C32.1 96.4667 32.1667 95.4667 32.3 94.4C29.5667 97.4667 26.7 100.067 23.7 102.2C20.7 104.333 17.8667 105.4 15.2 105.4ZM16.2 87.6C16.2 91 16.7333 93.4667 17.8 95C18.9333 96.4667 20.4333 97.2 22.3 97.2C23.9 97.2 25.5333 96.7 27.2 95.7C28.8667 94.6333 30.7333 93.0667 32.8 91C32.8667 90.6 32.9667 90.0667 33.1 89.4L39.3 61.2C38.4333 60.3333 37.4333 59.7333 36.3 59.4C35.1667 59 34.1 58.8 33.1 58.8C30.3667 58.8 27.3667 60.5 24.1 63.9C21.7667 66.4333 19.8667 69.9 18.4 74.3C16.9333 78.6333 16.2 83.0667 16.2 87.6Z" fill="#FF0000"/>
<path d="M90.505 56.21V94.28H102.655V104H62.74V94.28H76.285V65.93H63.19V56.21H90.505ZM81.91 31.19C84.37 31.19 86.38 31.955 87.94 33.485C89.5 35.015 90.28 36.92 90.28 39.2C90.28 41.48 89.5 43.4 87.94 44.96C86.38 46.49 84.37 47.255 81.91 47.255C79.42 47.255 77.38 46.49 75.79 44.96C74.23 43.4 73.45 41.48 73.45 39.2C73.45 36.92 74.23 35.015 75.79 33.485C77.38 31.955 79.42 31.19 81.91 31.19ZM135.965 54.635C140.885 54.635 145.07 55.685 148.52 57.785C151.97 59.885 154.61 62.84 156.44 66.65C158.27 70.43 159.185 74.87 159.185 79.97C159.185 85.28 158.255 89.855 156.395 93.695C154.565 97.505 151.925 100.43 148.475 102.47C145.025 104.51 140.855 105.53 135.965 105.53C131.105 105.53 126.935 104.525 123.455 102.515C120.005 100.505 117.35 97.595 115.49 93.785C113.66 89.975 112.745 85.4 112.745 80.06C112.745 74.99 113.66 70.55 115.49 66.74C117.35 62.93 120.005 59.96 123.455 57.83C126.935 55.7 131.105 54.635 135.965 54.635ZM135.965 65.12C133.055 65.12 130.895 66.32 129.485 68.72C128.105 71.09 127.415 74.87 127.415 80.06C127.415 85.34 128.105 89.165 129.485 91.535C130.895 93.905 133.055 95.09 135.965 95.09C138.875 95.09 141.02 93.905 142.4 91.535C143.81 89.165 144.515 85.31 144.515 79.97C144.515 74.81 143.81 71.045 142.4 68.675C141.02 66.305 138.875 65.12 135.965 65.12Z" fill="white"/>
<path d="M268.924 103.914H242.9V30.1971H269.221C276.609 30.1971 283.007 31.6979 288.417 34.6993C293.826 37.7008 297.998 41.9556 300.934 47.4637C303.869 52.9719 305.337 59.486 305.337 67.0062C305.337 74.5593 303.869 81.1064 300.934 86.6475C297.998 92.1557 293.809 96.4105 288.367 99.4119C282.958 102.413 276.477 103.914 268.924 103.914ZM258.138 91.1002H268.132C275.586 91.1002 281.094 89.0223 284.657 84.8664C288.219 80.7106 290 74.7572 290 67.0062C290 59.2552 288.202 53.3182 284.607 49.1953C281.045 45.0725 275.603 43.011 268.281 43.011H258.138V91.1002Z" fill="white"/>
<path d="M314.292 103.914L313.945 30.1971H343.036C348.545 30.1971 353.311 31.1866 357.335 33.1656C361.391 35.1116 364.508 37.8987 366.685 41.5268C368.895 45.1549 370 49.4427 370 54.3902C370 59.3376 368.879 63.6254 366.636 67.2535C364.426 70.8487 361.293 73.6357 357.236 75.6147C353.179 77.5937 348.38 78.5832 342.839 78.5832H329.184V103.914H339.346L321.738 122.912L303.882 103.914H314.292ZM329.184 65.8188H342.047C346.071 65.8188 349.254 64.7963 351.596 62.7514C353.937 60.6734 355.108 57.8864 355.108 54.3902C355.108 50.861 353.937 48.0739 351.596 46.029C349.254 43.984 346.071 42.9616 342.047 42.9616H329.184V65.8188Z" fill="white"/>
<path d="M185.708 101.737C190.259 103.98 195.602 105.101 201.737 105.101C207.872 105.101 213.215 103.98 217.767 101.737C222.319 99.4613 225.848 96.3115 228.355 92.2875C230.861 88.2306 232.115 83.5471 232.115 78.2368V30.1971H217.223V76.9999C217.223 81.3537 215.821 84.9323 213.017 87.7359C210.214 90.5395 206.454 91.9412 201.737 91.9412C197.054 91.9412 193.31 90.5395 190.507 87.7359C187.703 84.8994 186.301 81.3207 186.301 76.9999V36.7871H196.463L178.855 19.0554L161 36.7871H171.409V78.2368C171.409 83.5471 172.646 88.2306 175.12 92.2875C177.627 96.3115 181.156 99.4613 185.708 101.737Z" fill="white"/>
</svg>
